<svg width="512" height="512" viewBox="0 0 512 512" fill="none" xmlns="http://www.w3.org/2000/svg">
  <rect width="512" height="512" rx="110" fill="#FFF8F1"/>
  <rect x="28" y="28" width="456" height="456" rx="92" fill="#F7EBDD"/>
  <circle cx="110" cy="96" r="74" fill="#E7D5C4" fill-opacity="0.7"/>
  <circle cx="420" cy="416" r="96" fill="#B9C8B2" fill-opacity="0.55"/>
  <path d="M74 408C140 390 214 382 296 382C372 382 428 390 450 400" stroke="#E7D8C8" stroke-width="12" stroke-linecap="round"/>
  <rect x="118" y="394" width="276" height="18" rx="9" fill="#B9C8B2"/>
  <rect x="150" y="119" width="212" height="14" rx="7" fill="#4F565C"/>
  <rect x="136" y="92" width="12" height="68" rx="6" fill="#7C858B"/>
  <rect x="118" y="98" width="12" height="56" rx="6" fill="#7C858B"/>
  <rect x="364" y="92" width="12" height="68" rx="6" fill="#7C858B"/>
  <rect x="382" y="98" width="12" height="56" rx="6" fill="#7C858B"/>
  <circle cx="256" cy="136" r="18" fill="#F3C7A8" stroke="#5B463B" stroke-width="8"/>
  <g transform="translate(256 196) rotate(0)">
    <rect x="-20" y="-24" width="40" height="54" rx="16" fill="#D9815B" stroke="#5B463B" stroke-width="8"/>
  </g>
  <g transform="translate(256 236) rotate(0)">
    <rect x="-19" y="-8" width="38" height="24" rx="10" fill="#7A9C8A" stroke="#5B463B" stroke-width="8"/>
  </g>
  <path d="M232 188 L208 162 L196 138" stroke="#F3C7A8" stroke-width="18" stroke-linecap="round" stroke-linejoin="round"/>
  <path d="M232 188 L208 162 L196 138" stroke="#5B463B" stroke-width="10" stroke-linecap="round" stroke-linejoin="round" fill="none"/>
  <circle cx="208" cy="162" r="6" fill="#5B463B"/>
  <path d="M280 188 L304 162 L316 138" stroke="#F3C7A8" stroke-width="18" stroke-linecap="round" stroke-linejoin="round"/>
  <path d="M280 188 L304 162 L316 138" stroke="#5B463B" stroke-width="10" stroke-linecap="round" stroke-linejoin="round" fill="none"/>
  <circle cx="304" cy="162" r="6" fill="#5B463B"/>
  <path d="M238 252 L198 302 L182 394" stroke="#F3C7A8" stroke-width="18" stroke-linecap="round" stroke-linejoin="round"/>
  <path d="M238 252 L198 302 L182 394" stroke="#5B463B" stroke-width="10" stroke-linecap="round" stroke-linejoin="round" fill="none"/>
  <circle cx="198" cy="302" r="6" fill="#5B463B"/>
  <path d="M274 252 L314 302 L330 394" stroke="#F3C7A8" stroke-width="18" stroke-linecap="round" stroke-linejoin="round"/>
  <path d="M274 252 L314 302 L330 394" stroke="#5B463B" stroke-width="10" stroke-linecap="round" stroke-linejoin="round" fill="none"/>
  <circle cx="314" cy="302" r="6" fill="#5B463B"/>
</svg>