<svg width="512" height="512" viewBox="0 0 512 512" fill="none" xmlns="http://www.w3.org/2000/svg">
  <rect width="512" height="512" rx="110" fill="#FFF8F1"/>
  <rect x="28" y="28" width="456" height="456" rx="92" fill="#F7EBDD"/>
  <circle cx="110" cy="96" r="74" fill="#E7D5C4" fill-opacity="0.7"/>
  <circle cx="420" cy="416" r="96" fill="#B9C8B2" fill-opacity="0.55"/>
  <path d="M74 408C140 390 214 382 296 382C372 382 428 390 450 400" stroke="#E7D8C8" stroke-width="12" stroke-linecap="round"/>
  <rect x="118" y="350" width="276" height="28" rx="14" fill="#B9C8B2"/>
  <circle cx="176" cy="280" r="18" fill="#F3C7A8" stroke="#5B463B" stroke-width="8"/>
  <g transform="translate(248 264) rotate(-20)">
    <rect x="-20" y="-24" width="40" height="54" rx="16" fill="#D9815B" stroke="#5B463B" stroke-width="8"/>
  </g>
  <g transform="translate(294 260) rotate(-10)">
    <rect x="-19" y="-8" width="38" height="24" rx="10" fill="#7A9C8A" stroke="#5B463B" stroke-width="8"/>
  </g>
  <path d="M212 280 L188 318 L168 348" stroke="#F3C7A8" stroke-width="18" stroke-linecap="round" stroke-linejoin="round"/>
  <path d="M212 280 L188 318 L168 348" stroke="#5B463B" stroke-width="10" stroke-linecap="round" stroke-linejoin="round" fill="none"/>
  <circle cx="188" cy="318" r="6" fill="#5B463B"/>
  <path d="M308 276 L342 314 L362 352" stroke="#F3C7A8" stroke-width="18" stroke-linecap="round" stroke-linejoin="round"/>
  <path d="M308 276 L342 314 L362 352" stroke="#5B463B" stroke-width="10" stroke-linecap="round" stroke-linejoin="round" fill="none"/>
  <circle cx="342" cy="314" r="6" fill="#5B463B"/>
  <path d="M286 288 L314 332 L320 352" stroke="#F3C7A8" stroke-width="18" stroke-linecap="round" stroke-linejoin="round"/>
  <path d="M286 288 L314 332 L320 352" stroke="#5B463B" stroke-width="10" stroke-linecap="round" stroke-linejoin="round" fill="none"/>
  <circle cx="314" cy="332" r="6" fill="#5B463B"/>
  <rect x="214" y="240" width="108" height="16" rx="8" fill="#4F565C"/>
  <rect x="206" y="224" width="16" height="48" rx="8" fill="#7C858B"/>
  <rect x="322" y="224" width="16" height="48" rx="8" fill="#7C858B"/>
</svg>