<svg width="512" height="512" viewBox="0 0 512 512" fill="none" xmlns="http://www.w3.org/2000/svg">
  <rect width="512" height="512" rx="110" fill="#FFF8F1"/>
  <rect x="28" y="28" width="456" height="456" rx="92" fill="#F7EBDD"/>
  <circle cx="110" cy="96" r="74" fill="#E7D5C4" fill-opacity="0.7"/>
  <circle cx="420" cy="416" r="96" fill="#B9C8B2" fill-opacity="0.55"/>
  <path d="M74 408C140 390 214 382 296 382C372 382 428 390 450 400" stroke="#E7D8C8" stroke-width="12" stroke-linecap="round"/>
  <rect x="118" y="386" width="284" height="18" rx="9" fill="#B9C8B2"/>
  <path d="M164 324L318 292L330 308L176 340Z" fill="#4F565C" stroke="#5B463B" stroke-width="8" stroke-linejoin="round"/>
  <path d="M182 323L296 299" stroke="#7C858B" stroke-width="8" stroke-linecap="round"/>
  <path d="M304 224L320 314" stroke="#5B463B" stroke-width="10" stroke-linecap="round" stroke-linejoin="round" fill="none"/>
  <path d="M246 314L320 314" stroke="#5B463B" stroke-width="10" stroke-linecap="round" stroke-linejoin="round" fill="none"/>
  <path d="M282 212L320 182" stroke="#5B463B" stroke-width="10" stroke-linecap="round" stroke-linejoin="round" fill="none"/>
  <rect x="310" y="160" width="42" height="30" rx="10" fill="#7C858B"/>
  <rect x="319" y="169" width="24" height="12" rx="6" fill="#D6A653"/>
  <circle cx="238" cy="154" r="18" fill="#F3C7A8" stroke="#5B463B" stroke-width="8"/>
  <g transform="translate(244 214) rotate(-8)">
    <rect x="-20" y="-24" width="40" height="54" rx="16" fill="#D9815B" stroke="#5B463B" stroke-width="8"/>
  </g>
  <g transform="translate(244 252) rotate(-8)">
    <rect x="-19" y="-8" width="38" height="24" rx="10" fill="#7A9C8A" stroke="#5B463B" stroke-width="8"/>
  </g>
  <path d="M228 208 L250 194 L282 190" stroke="#F3C7A8" stroke-width="18" stroke-linecap="round" stroke-linejoin="round"/>
  <path d="M228 208 L250 194 L282 190" stroke="#5B463B" stroke-width="10" stroke-linecap="round" stroke-linejoin="round" fill="none"/>
  <circle cx="250" cy="194" r="6" fill="#5B463B"/>
  <path d="M266 210 L286 228 L304 246" stroke="#F3C7A8" stroke-width="18" stroke-linecap="round" stroke-linejoin="round"/>
  <path d="M266 210 L286 228 L304 246" stroke="#5B463B" stroke-width="10" stroke-linecap="round" stroke-linejoin="round" fill="none"/>
  <circle cx="286" cy="228" r="6" fill="#5B463B"/>
  <path d="M236 272 L208 308 L180 334" stroke="#F3C7A8" stroke-width="18" stroke-linecap="round" stroke-linejoin="round"/>
  <path d="M236 272 L208 308 L180 334" stroke="#5B463B" stroke-width="10" stroke-linecap="round" stroke-linejoin="round" fill="none"/>
  <circle cx="208" cy="308" r="6" fill="#5B463B"/>
  <path d="M260 272 L286 302 L334 322" stroke="#F3C7A8" stroke-width="18" stroke-linecap="round" stroke-linejoin="round"/>
  <path d="M260 272 L286 302 L334 322" stroke="#5B463B" stroke-width="10" stroke-linecap="round" stroke-linejoin="round" fill="none"/>
  <circle cx="286" cy="302" r="6" fill="#5B463B"/>
</svg>